<?xml version="1.0" encoding="UTF-8" standalone="no"?>
<!DOCTYPE svg PUBLIC "-//W3C//DTD SVG 1.1//EN"
 "http://www.w3.org/Graphics/SVG/1.1/DTD/svg11.dtd">
<!-- Generated by graphviz version 9.0.0 (0)
 -->
<!-- Pages: 1 -->
<svg width="436pt" height="312pt"
 viewBox="0.00 0.00 435.64 311.75" xmlns="http://www.w3.org/2000/svg" xmlns:xlink="http://www.w3.org/1999/xlink">
<g id="graph0" class="graph" transform="scale(1 1) rotate(0) translate(4 307.75)">
<polygon fill="white" stroke="none" points="-4,4 -4,-307.75 431.64,-307.75 431.64,4 -4,4"/>
<!-- 10 -->
<g id="node1" class="node">
<title>10</title>
<ellipse fill="none" stroke="black" cx="250" cy="-285.75" rx="65.41" ry="18"/>
<text text-anchor="middle" x="250" y="-281.07" font-family="Times,serif" font-size="14.00">. (WHERE)</text>
</g>
<!-- 6 -->
<g id="node2" class="node">
<title>6</title>
<ellipse fill="none" stroke="black" cx="174" cy="-196.5" rx="65.41" ry="18"/>
<text text-anchor="middle" x="174" y="-191.82" font-family="Times,serif" font-size="14.00">. (WHERE)</text>
</g>
<!-- 10&#45;&gt;6 -->
<g id="edge1" class="edge">
<title>10&#45;&gt;6</title>
<path fill="none" stroke="black" d="M235.35,-267.93C224.2,-255.13 208.68,-237.32 196.04,-222.8"/>
<polygon fill="black" stroke="black" points="198.81,-220.65 189.6,-215.41 193.53,-225.25 198.81,-220.65"/>
<text text-anchor="middle" x="231" y="-236.45" font-family="Times,serif" font-size="14.00">left</text>
</g>
<!-- 9 -->
<g id="node3" class="node">
<title>9</title>
<ellipse fill="none" stroke="black" cx="328" cy="-196.5" rx="70.15" ry="18"/>
<text text-anchor="middle" x="328" y="-191.82" font-family="Times,serif" font-size="14.00">= (ASSIGN)</text>
</g>
<!-- 10&#45;&gt;9 -->
<g id="edge2" class="edge">
<title>10&#45;&gt;9</title>
<path fill="none" stroke="black" d="M265.04,-267.93C276.48,-255.13 292.4,-237.32 305.38,-222.8"/>
<polygon fill="black" stroke="black" points="307.94,-225.19 312,-215.4 302.72,-220.52 307.94,-225.19"/>
<text text-anchor="middle" x="313.62" y="-236.45" font-family="Times,serif" font-size="14.00">right</text>
</g>
<!-- 2 -->
<g id="node6" class="node">
<title>2</title>
<ellipse fill="none" stroke="black" cx="88" cy="-107.25" rx="27" ry="18"/>
<text text-anchor="middle" x="88" y="-102.58" font-family="Times,serif" font-size="14.00">+</text>
</g>
<!-- 6&#45;&gt;2 -->
<g id="edge5" class="edge">
<title>6&#45;&gt;2</title>
<path fill="none" stroke="black" d="M157.42,-178.68C143.91,-164.97 124.72,-145.51 109.94,-130.51"/>
<polygon fill="black" stroke="black" points="112.82,-128.45 103.31,-123.78 107.84,-133.36 112.82,-128.45"/>
<text text-anchor="middle" x="151" y="-147.2" font-family="Times,serif" font-size="14.00">left</text>
</g>
<!-- 5 -->
<g id="node7" class="node">
<title>5</title>
<ellipse fill="none" stroke="black" cx="203" cy="-107.25" rx="70.15" ry="18"/>
<text text-anchor="middle" x="203" y="-102.58" font-family="Times,serif" font-size="14.00">= (ASSIGN)</text>
</g>
<!-- 6&#45;&gt;5 -->
<g id="edge6" class="edge">
<title>6&#45;&gt;5</title>
<path fill="none" stroke="black" d="M179.73,-178.26C183.7,-166.31 189.08,-150.13 193.67,-136.33"/>
<polygon fill="black" stroke="black" points="196.97,-137.48 196.81,-126.89 190.33,-135.27 196.97,-137.48"/>
<text text-anchor="middle" x="209.62" y="-147.2" font-family="Times,serif" font-size="14.00">right</text>
</g>
<!-- 7 -->
<g id="node4" class="node">
<title>7</title>
<ellipse fill="none" stroke="black" cx="323" cy="-107.25" rx="27" ry="18"/>
<text text-anchor="middle" x="323" y="-102.58" font-family="Times,serif" font-size="14.00">b</text>
</g>
<!-- 9&#45;&gt;7 -->
<g id="edge3" class="edge">
<title>9&#45;&gt;7</title>
<path fill="none" stroke="black" d="M327.01,-178.26C326.33,-166.43 325.42,-150.45 324.63,-136.75"/>
<polygon fill="black" stroke="black" points="328.14,-136.75 324.07,-126.96 321.15,-137.15 328.14,-136.75"/>
<text text-anchor="middle" x="338" y="-147.2" font-family="Times,serif" font-size="14.00">left</text>
</g>
<!-- 8 -->
<g id="node5" class="node">
<title>8</title>
<ellipse fill="none" stroke="black" cx="398" cy="-107.25" rx="29.64" ry="18"/>
<text text-anchor="middle" x="398" y="-102.58" font-family="Times,serif" font-size="14.00">0x2</text>
</g>
<!-- 9&#45;&gt;8 -->
<g id="edge4" class="edge">
<title>9&#45;&gt;8</title>
<path fill="none" stroke="black" d="M341.5,-178.68C352.02,-165.55 366.79,-147.15 378.59,-132.45"/>
<polygon fill="black" stroke="black" points="381.01,-135.02 384.54,-125.03 375.55,-130.64 381.01,-135.02"/>
<text text-anchor="middle" x="386.62" y="-147.2" font-family="Times,serif" font-size="14.00">right</text>
</g>
<!-- 0 -->
<g id="node10" class="node">
<title>0</title>
<ellipse fill="none" stroke="black" cx="27" cy="-18" rx="27" ry="18"/>
<text text-anchor="middle" x="27" y="-13.32" font-family="Times,serif" font-size="14.00">a</text>
</g>
<!-- 2&#45;&gt;0 -->
<g id="edge9" class="edge">
<title>2&#45;&gt;0</title>
<path fill="none" stroke="black" d="M77.09,-90.65C68.04,-77.7 55,-59.05 44.49,-44.01"/>
<polygon fill="black" stroke="black" points="47.48,-42.19 38.88,-36 41.75,-46.2 47.48,-42.19"/>
<text text-anchor="middle" x="75" y="-57.95" font-family="Times,serif" font-size="14.00">left</text>
</g>
<!-- 1 -->
<g id="node11" class="node">
<title>1</title>
<ellipse fill="none" stroke="black" cx="99" cy="-18" rx="27" ry="18"/>
<text text-anchor="middle" x="99" y="-13.32" font-family="Times,serif" font-size="14.00">b</text>
</g>
<!-- 2&#45;&gt;1 -->
<g id="edge10" class="edge">
<title>2&#45;&gt;1</title>
<path fill="none" stroke="black" d="M90.17,-89.01C91.66,-77.18 93.68,-61.2 95.41,-47.5"/>
<polygon fill="black" stroke="black" points="98.86,-48.06 96.64,-37.7 91.92,-47.19 98.86,-48.06"/>
<text text-anchor="middle" x="112.62" y="-57.95" font-family="Times,serif" font-size="14.00">right</text>
</g>
<!-- 3 -->
<g id="node8" class="node">
<title>3</title>
<ellipse fill="none" stroke="black" cx="182" cy="-18" rx="27" ry="18"/>
<text text-anchor="middle" x="182" y="-13.32" font-family="Times,serif" font-size="14.00">a</text>
</g>
<!-- 5&#45;&gt;3 -->
<g id="edge7" class="edge">
<title>5&#45;&gt;3</title>
<path fill="none" stroke="black" d="M198.85,-89.01C195.97,-77.06 192.08,-60.88 188.76,-47.08"/>
<polygon fill="black" stroke="black" points="192.24,-46.58 186.49,-37.67 185.43,-48.21 192.24,-46.58"/>
<text text-anchor="middle" x="207" y="-57.95" font-family="Times,serif" font-size="14.00">left</text>
</g>
<!-- 4 -->
<g id="node9" class="node">
<title>4</title>
<ellipse fill="none" stroke="black" cx="257" cy="-18" rx="29.64" ry="18"/>
<text text-anchor="middle" x="257" y="-13.32" font-family="Times,serif" font-size="14.00">0x1</text>
</g>
<!-- 5&#45;&gt;4 -->
<g id="edge8" class="edge">
<title>5&#45;&gt;4</title>
<path fill="none" stroke="black" d="M213.67,-89.01C221.43,-76.46 232.09,-59.25 240.89,-45.03"/>
<polygon fill="black" stroke="black" points="243.82,-46.95 246.1,-36.6 237.87,-43.26 243.82,-46.95"/>
<text text-anchor="middle" x="252.62" y="-57.95" font-family="Times,serif" font-size="14.00">right</text>
</g>
</g>
</svg>
